<svg width="127" height="36" viewBox="0 0 127 36" fill="none" xmlns="http://www.w3.org/2000/svg">
                <path d="M31.058 22L40.338 1.7H42.455L51.735 22H49.473L40.947 2.947H41.817L33.291 22H31.058ZM34.712 16.577L35.35 14.837H47.153L47.791 16.577H34.712ZM55.0931 22V1.7H57.2391V20.144H68.6071V22H55.0931ZM74.0843 10.777H84.8143V12.604H74.0843V10.777ZM74.3163 20.144H86.5253V22H72.1703V1.7H86.0903V3.556H74.3163V20.144ZM88.5018 22L96.8248 10.748V12.401L88.9948 1.7H91.4598L98.0428 10.632L97.0858 10.661L103.669 1.7H105.989L98.2458 12.256V10.748L106.54 22H104.046L97.0278 12.459H97.9268L90.9668 22H88.5018ZM106.163 22L115.443 1.7H117.56L126.84 22H124.578L116.052 2.947H116.922L108.396 22H106.163ZM109.817 16.577L110.455 14.837H122.258L122.896 16.577H109.817Z" fill="#C48B9F"/>
                <path d="M49.763 35.054C49.295 35.054 48.845 34.979 48.413 34.829C47.987 34.673 47.657 34.475 47.423 34.235L47.684 33.722C47.906 33.938 48.203 34.121 48.575 34.271C48.953 34.415 49.349 34.487 49.763 34.487C50.159 34.487 50.48 34.439 50.726 34.343C50.978 34.241 51.161 34.106 51.275 33.938C51.395 33.77 51.455 33.584 51.455 33.38C51.455 33.134 51.383 32.936 51.239 32.786C51.101 32.636 50.918 32.519 50.69 32.435C50.462 32.345 50.21 32.267 49.934 32.201C49.658 32.135 49.382 32.066 49.106 31.994C48.83 31.916 48.575 31.814 48.341 31.688C48.113 31.562 47.927 31.397 47.783 31.193C47.645 30.983 47.576 30.71 47.576 30.374C47.576 30.062 47.657 29.777 47.819 29.519C47.987 29.255 48.242 29.045 48.584 28.889C48.926 28.727 49.364 28.646 49.898 28.646C50.252 28.646 50.603 28.697 50.951 28.799C51.299 28.895 51.599 29.03 51.851 29.204L51.626 29.735C51.356 29.555 51.068 29.423 50.762 29.339C50.462 29.255 50.171 29.213 49.889 29.213C49.511 29.213 49.199 29.264 48.953 29.366C48.707 29.468 48.524 29.606 48.404 29.78C48.29 29.948 48.233 30.14 48.233 30.356C48.233 30.602 48.302 30.8 48.44 30.95C48.584 31.1 48.77 31.217 48.998 31.301C49.232 31.385 49.487 31.46 49.763 31.526C50.039 31.592 50.312 31.664 50.582 31.742C50.858 31.82 51.11 31.922 51.338 32.048C51.572 32.168 51.758 32.33 51.896 32.534C52.04 32.738 52.112 33.005 52.112 33.335C52.112 33.641 52.028 33.926 51.86 34.19C51.692 34.448 51.434 34.658 51.086 34.82C50.744 34.976 50.303 35.054 49.763 35.054ZM56.3171 31.517H59.6471V32.084H56.3171V31.517ZM56.3891 34.424H60.1781V35H55.7231V28.7H60.0431V29.276H56.3891V34.424ZM63.9036 35V28.7H64.4526L67.3326 33.614H67.0446L69.8976 28.7H70.4466V35H69.8076V29.699H69.9606L67.3326 34.199H67.0176L64.3716 29.699H64.5426V35H63.9036ZM74.6593 35V28.7H75.3253V35H74.6593ZM80.2101 35.054C79.8561 35.054 79.5231 34.976 79.2111 34.82C78.9051 34.664 78.6591 34.442 78.4731 34.154L78.8601 33.704C79.0341 33.956 79.2351 34.148 79.4631 34.28C79.6911 34.412 79.9431 34.478 80.2191 34.478C80.9991 34.478 81.3891 34.016 81.3891 33.092V29.276H79.0851V28.7H82.0461V33.065C82.0461 33.731 81.8901 34.229 81.5781 34.559C81.2721 34.889 80.8161 35.054 80.2101 35.054ZM88.9579 35.054C88.4839 35.054 88.0429 34.976 87.6349 34.82C87.2329 34.658 86.8819 34.433 86.5819 34.145C86.2879 33.851 86.0569 33.512 85.8889 33.128C85.7269 32.738 85.6459 32.312 85.6459 31.85C85.6459 31.388 85.7269 30.965 85.8889 30.581C86.0569 30.191 86.2879 29.852 86.5819 29.564C86.8819 29.27 87.2329 29.045 87.6349 28.889C88.0369 28.727 88.4779 28.646 88.9579 28.646C89.4319 28.646 89.8699 28.727 90.2719 28.889C90.6739 29.045 91.0219 29.267 91.3159 29.555C91.6159 29.843 91.8469 30.182 92.0089 30.572C92.1769 30.962 92.2609 31.388 92.2609 31.85C92.2609 32.312 92.1769 32.738 92.0089 33.128C91.8469 33.518 91.6159 33.857 91.3159 34.145C91.0219 34.433 90.6739 34.658 90.2719 34.82C89.8699 34.976 89.4319 35.054 88.9579 35.054ZM88.9579 34.46C89.3359 34.46 89.6839 34.397 90.0019 34.271C90.3259 34.139 90.6049 33.956 90.8389 33.722C91.0789 33.482 91.2649 33.206 91.3969 32.894C91.5289 32.576 91.5949 32.228 91.5949 31.85C91.5949 31.472 91.5289 31.127 91.3969 30.815C91.2649 30.497 91.0789 30.221 90.8389 29.987C90.6049 29.747 90.3259 29.564 90.0019 29.438C89.6839 29.306 89.3359 29.24 88.9579 29.24C88.5799 29.24 88.2289 29.306 87.9049 29.438C87.5809 29.564 87.2989 29.747 87.0589 29.987C86.8249 30.221 86.6389 30.497 86.5009 30.815C86.3689 31.127 86.3029 31.472 86.3029 31.85C86.3029 32.222 86.3689 32.567 86.5009 32.885C86.6389 33.203 86.8249 33.482 87.0589 33.722C87.2989 33.956 87.5809 34.139 87.9049 34.271C88.2289 34.397 88.5799 34.46 88.9579 34.46ZM95.9137 35V28.7H96.5797V35H95.9137ZM99.7816 35L102.662 28.7H103.319L106.199 35H105.497L102.851 29.087H103.121L100.475 35H99.7816ZM100.916 33.317L101.114 32.777H104.777L104.975 33.317H100.916ZM111.138 35.054C110.67 35.054 110.22 34.979 109.788 34.829C109.362 34.673 109.032 34.475 108.798 34.235L109.059 33.722C109.281 33.938 109.578 34.121 109.95 34.271C110.328 34.415 110.724 34.487 111.138 34.487C111.534 34.487 111.855 34.439 112.101 34.343C112.353 34.241 112.536 34.106 112.65 33.938C112.77 33.77 112.83 33.584 112.83 33.38C112.83 33.134 112.758 32.936 112.614 32.786C112.476 32.636 112.293 32.519 112.065 32.435C111.837 32.345 111.585 32.267 111.309 32.201C111.033 32.135 110.757 32.066 110.481 31.994C110.205 31.916 109.95 31.814 109.716 31.688C109.488 31.562 109.302 31.397 109.158 31.193C109.02 30.983 108.951 30.71 108.951 30.374C108.951 30.062 109.032 29.777 109.194 29.519C109.362 29.255 109.617 29.045 109.959 28.889C110.301 28.727 110.739 28.646 111.273 28.646C111.627 28.646 111.978 28.697 112.326 28.799C112.674 28.895 112.974 29.03 113.226 29.204L113.001 29.735C112.731 29.555 112.443 29.423 112.137 29.339C111.837 29.255 111.546 29.213 111.264 29.213C110.886 29.213 110.574 29.264 110.328 29.366C110.082 29.468 109.899 29.606 109.779 29.78C109.665 29.948 109.608 30.14 109.608 30.356C109.608 30.602 109.677 30.8 109.815 30.95C109.959 31.1 110.145 31.217 110.373 31.301C110.607 31.385 110.862 31.46 111.138 31.526C111.414 31.592 111.687 31.664 111.957 31.742C112.233 31.82 112.485 31.922 112.713 32.048C112.947 32.168 113.133 32.33 113.271 32.534C113.415 32.738 113.487 33.005 113.487 33.335C113.487 33.641 113.403 33.926 113.235 34.19C113.067 34.448 112.809 34.658 112.461 34.82C112.119 34.976 111.678 35.054 111.138 35.054Z" fill="#C48B9F"/>
                <path d="M9.46128 6.82422L6.05469 12.5385" stroke="#C48B9F" strokeWidth="0.5"/>
                <path d="M1 7L6 12" stroke="#C48B9F" strokeWidth="0.5"/>
                <path d="M31 7L26 12" stroke="#C48B9F" strokeWidth="0.5"/>
                <path d="M7 1L1 7" stroke="#C48B9F" strokeWidth="0.5"/>
                <path d="M25 1L31 7" stroke="#C48B9F" strokeWidth="0.5"/>
                <path d="M22.5387 6.82422L25.9453 12.5385" stroke="#C48B9F" strokeWidth="0.5"/>
                <path d="M15.9457 1L22.5391 6.6044" stroke="#C48B9F" strokeWidth="0.5"/>
                <path d="M15.945 1.10986L9.35156 6.71426" stroke="#C48B9F" strokeWidth="0.5"/>
                <path d="M15.945 1.10986L9.35156 6.71426" stroke="#C48B9F" strokeWidth="0.5"/>
                <path d="M16.0555 22.3192L10.6709 16.8247" stroke="#C48B9F"/>
                <path d="M16.0548 22.3192L21.4395 16.8247" stroke="#C48B9F"/>
                <path d="M6.38477 1.11035L25.5056 1.11035" stroke="#C48B9F"/>
                <path d="M1 7.1543L31 7.1543" stroke="#C48B9F"/>
            </svg>